# xmcd CD database file
#
# Track frame offsets:
#	150
#	26381
#	48808
#	72616
#	98510
#	110683
#	140952
#	175531
#	193351
#
# Disc length: 2929 seconds
#
# Revision: 0
# Processed by: cddbd v1.5.1PL2 Copyright (c) Steve Scherf et al.
# Submitted via: Feurio! 1.68 - http://www.feurio.com
#
DISCID=7e0b6f09
DTITLE=Roger Chapman - Live In Hamburg
DYEAR=1900
DGENRE=
TTITLE0=Moth To A Flame
TTITLE1=Keep Forgettin'
TTITLE2=Midnight Child
TTITLE3=Who Pulled The Nite Down
TTITLE4=Talking About You
TTITLE5=Short List
TTITLE6=Can't Get In
TTITLE7=I'm Your Hoochie Coochie Man
TTITLE8=Let's Spend The Night Together
EXTD=
EXTT0=
EXTT1=
EXTT2=
EXTT3=
EXTT4=
EXTT5=
EXTT6=
EXTT7=
EXTT8=
PLAYORDER=
